<svg width="30" height="30" viewBox="0 0 30 30" fill="none" xmlns="http://www.w3.org/2000/svg">
<path fill-rule="evenodd" clip-rule="evenodd" d="M6.0648 0H23.9351C27.2708 0 29.9999 2.72915 29.9999 6.0648V23.8852C29.9999 27.2209 27.2708 29.95 23.9351 29.95H6.0648C2.72915 29.95 0 27.2209 0 23.8852V6.0648C0 2.72915 2.72915 0 6.0648 0ZM23.4172 17.002C24.1795 17.002 24.7976 17.6201 24.7976 18.3824C24.7976 19.1449 24.1795 19.763 23.4172 19.763H22.1835L23.2967 21.6854C23.6735 22.3492 23.4408 23.1928 22.7771 23.5695C22.1132 23.9462 21.2698 23.7135 20.8931 23.0498L18.9898 19.763H18.9635L17.3273 17.0018H17.3909L15.7756 14.2123L17.347 11.4107L20.5847 17.0018H23.4172V17.002ZM12.3314 8.2647C11.9547 7.60086 12.1873 6.75738 12.8512 6.38064C13.5149 6.0039 14.3585 6.23652 14.7352 6.9003L15.0531 7.44948L15.3268 6.9786C15.7035 6.31482 16.5471 6.0822 17.2108 6.45894C17.8746 6.83568 18.1072 7.67922 17.7306 8.34288L16.6467 10.2014L16.6499 10.2068L15.8203 11.6187L12.681 17.002H15.978L17.5798 19.763L11.1082 19.7632L9.32544 22.8934C8.9487 23.5571 8.1051 23.7898 7.44144 23.413C6.77772 23.0363 6.54498 22.1928 6.92178 21.529L7.92756 19.7632H6.58284C5.82047 19.7632 5.20235 19.1451 5.20235 18.3826C5.20235 17.6203 5.82047 17.0021 6.58284 17.0021H9.50022L13.4532 10.2019L12.3314 8.2647Z" fill="white"/>
</svg>
